<svg fill="none" height="212" viewBox="0 0 361 212" width="361" xmlns="http://www.w3.org/2000/svg">
    <defs>
        <linearGradient gradientUnits="userSpaceOnUse" id="paint0_linear" x1="265.361" x2="265.794"
            y1="97.6978" y2="127.228">
            <stop stop-color="white" />
            <stop offset="1" stop-color="white" stop-opacity="0" />
        </linearGradient>
        <clipPath id="clip0">
            <rect fill="white" height="26" transform="translate(250 37)" width="26" />
        </clipPath>
    </defs>
    <path
        d="M19.2139 140.923C-15.5843 168.579 4.71463 191.164 19.2139 196L349.5 193.5C371.463 175.227 356.024 153.578 346.873 148.949C329.189 133.145 327.145 113.967 328.333 106.354L332.255 57.8944C321.987 7.76841 282.815 -1.47075 264.513 0.175427L237.416 5.42261C185.218 21.4728 139.843 14.1679 123.68 8.50919C121.968 5.54607 101.574 2.95335 91.5913 2.02737C30.5518 4.99049 33.3566 40.5067 42.3889 57.8944L57.007 76.4139C87.2416 109.996 44.4093 133.413 19.2139 140.923Z"
        fill="#D5F9F3" />
    <circle fill="black" r="18.2265"
        transform="matrix(-0.999892 0.0146649 0.0146649 0.999892 253.025 165.729)" />
    <circle fill="white" r="8.43822"
        transform="matrix(-0.999892 0.0146649 0.0146649 0.999892 253.025 165.729)" />
    <path
        d="M225.403 73.7969C227.353 68.1675 222.555 68.2378 219.912 68.9767L89.5138 70.8892C85.043 70.9547 84.8764 74.2243 85.352 75.851L86.4376 149.871L226.489 147.817L225.403 73.7969Z"
        fill="white" />
    <circle fill="black" r="17.889"
        transform="matrix(-0.999892 0.0146649 0.0146649 0.999892 123.091 167.635)" />
    <circle fill="white" r="8.43822"
        transform="matrix(-0.999892 0.0146649 0.0146649 0.999892 123.091 167.635)" />
    <path
        d="M263.252 88.9939C261.336 87.2667 245.541 85.9343 237.883 85.484C234.629 84.5865 234.53 87.0522 234.888 88.3972L234.18 109.168L234.764 148.992L254.338 148.705C263.133 149.926 265.665 157.653 265.832 161.364C266.847 166.075 271.162 167.981 273.192 168.345L292.767 168.058C294.923 167.756 295.111 166.785 294.936 166.338L296.989 156.687L295.807 156.705L295.741 152.148C297.206 150.777 297.01 142.791 296.729 138.969L295.377 127.343L293.461 123.32C286.368 109.246 278.987 99.2839 276.183 96.0619C274.256 93.5247 270.397 92.8274 268.709 92.7959C267.73 90.5148 264.663 89.3108 263.252 88.9939Z"
        fill="#FF6600" />
    <path
        d="M231.597 85.3656L225.016 85.4621L225.862 143.173L85.4656 145.232L85.582 153.163L88.9569 153.114L94.1356 160.971L108.31 160.763L111.641 157.676C121.053 145.791 131.65 152.488 135.771 157.322C136.746 159.333 140.595 160.121 142.397 160.263L229.133 158.991C234.727 162.96 235.034 158.567 234.488 155.874L231.597 85.3656Z"
        fill="#272938" />
    <path
        d="M245.27 120.272L244.955 98.841C245.35 98.1601 246.349 97.9767 246.799 97.9701L273.163 100.284L277.454 105.116L286.156 123.048L286.213 126.929L245.27 120.272Z"
        fill="#C4C4C4" />
    <path
        d="M245.27 120.272L244.955 98.841C245.35 98.1601 246.349 97.9767 246.799 97.9701L273.163 100.284L277.454 105.116L286.156 123.048L286.213 126.929L245.27 120.272Z"
        fill="url(#paint0_linear)" />
    <path
        d="M138.354 83.3772L138.114 84.1754C139.344 84.1573 156.607 83.6643 159.937 83.8553C161.533 83.8319 166.79 83.9497 169.287 84.123L169.28 84.1129C168.571 83.0525 165.332 78.2124 158.15 78.0038C151.349 78.0736 148.522 81.9685 148.026 82.4256C147.629 82.7913 146.771 82.8639 146.391 82.8545L139.087 82.9616C138.578 82.969 138.386 83.2417 138.354 83.3772Z"
        fill="#FF6600" />
    <path
        d="M171.741 91.1487C172.336 89.7365 172.186 87.2137 172.022 86.0766C172.921 86.927 173.466 88.7543 173.137 90.5284C172.991 91.6552 172.431 92.7879 171.842 94.0261C171.444 95.0755 171.808 95.3511 172.039 95.3577L172.158 95.3559L172.278 95.4591C171.148 96.0904 171.162 96.0153 171.094 96.4211C171.033 97.0937 170.365 98.471 170.038 99.0756C167.977 102.908 163.929 104.998 162.163 105.564C161.694 105.834 159.754 106.039 158.843 106.107L155.384 106.158C155.188 105.753 156.632 99.2022 157.379 95.9775L159.7 95.9435C165.614 95.8567 169.918 95.4787 171.741 91.1487Z"
        fill="#FF6600" stroke="#FF6600" stroke-linecap="round" stroke-linejoin="round"
        stroke-width="0.5" />
    <path
        d="M160.469 86.8465L144.887 87.21C144.697 87.9445 143.897 91.3029 144.107 93.474C144.156 96.8169 147.24 102.469 150.423 103.667C150.449 103.823 150.384 104.393 150.349 104.658C150.232 105.607 149.768 107.425 149.786 108.685L150.94 108.668C150.817 108.334 152.299 101.161 153.055 97.616C153.121 97.2912 153.786 93.9917 154.257 92.8603L160.555 92.7679C164.565 92.7091 168.695 93.1733 168.645 89.8004C168.517 85.8918 163.529 86.8016 160.469 86.8465Z"
        fill="black" />
    <path clip-rule="evenodd"
        d="M130.892 123.266L132.149 123.248L132.097 119.71L133.132 119.695C135.542 119.659 135.513 117.741 135.511 117.591C135.549 116.805 135.113 115.251 133.067 115.317C131.385 115.372 130.86 115.37 130.776 115.359L130.776 115.351C130.76 115.354 130.758 115.357 130.776 115.359L130.892 123.266ZM132.094 116.472L132.126 118.645C133.323 118.628 134.183 118.573 134.181 117.626C134.179 116.678 133.497 116.361 132.094 116.472Z"
        fill="#FF6600" fill-rule="evenodd" />
    <path clip-rule="evenodd"
        d="M149.572 123.322C151.891 123.288 153.743 121.354 153.709 119.003C153.674 116.652 151.766 114.773 149.447 114.807C147.128 114.841 145.276 116.775 145.311 119.126C145.345 121.477 147.253 123.356 149.572 123.322ZM149.552 121.972C151.137 121.949 152.402 120.628 152.378 119.022C152.354 117.416 151.051 116.132 149.467 116.156C147.883 116.179 146.618 117.5 146.641 119.106C146.665 120.712 147.968 121.995 149.552 121.972Z"
        fill="#FF6600" fill-rule="evenodd" />
    <path clip-rule="evenodd"
        d="M177.309 122.915C179.628 122.881 181.48 120.948 181.445 118.596C181.411 116.245 179.503 114.366 177.184 114.4C174.865 114.434 173.013 116.368 173.048 118.719C173.082 121.071 174.99 122.949 177.309 122.915ZM177.289 121.565C178.873 121.542 180.138 120.221 180.115 118.615C180.091 117.009 178.788 115.725 177.204 115.749C175.62 115.772 174.355 117.093 174.378 118.699C174.402 120.305 175.705 121.588 177.289 121.565Z"
        fill="#FF6600" fill-rule="evenodd" />
    <path
        d="M165.955 116.109L165.935 114.715L171.346 114.636L171.367 116.03L169.312 116.06L169.41 122.746L168.079 122.765L167.981 116.079L165.955 116.109Z"
        fill="#FF6600" />
    <path
        d="M156.591 122.918L157.862 122.9L157.785 117.638L163.739 123.323L163.615 114.869L162.314 114.888L162.393 120.269L156.468 114.539L156.591 122.918Z"
        fill="#FF6600" />
    <path d="M143.565 123.11L142.101 123.132L139.372 119.513L140.656 119.344L143.565 123.11Z"
        fill="#FF6600" />
    <path clip-rule="evenodd"
        d="M138.137 123.19L139.394 123.171L139.342 119.633L140.377 119.618C142.787 119.583 142.759 117.664 142.757 117.514C142.794 116.729 142.358 115.175 140.313 115.241C138.631 115.295 138.105 115.294 138.021 115.283L138.021 115.275C138.005 115.277 138.003 115.28 138.021 115.283L138.137 123.19ZM139.339 116.395L139.371 118.569C140.568 118.551 141.428 118.497 141.426 117.549C141.424 116.601 140.742 116.285 139.339 116.395Z"
        fill="#FF6600" fill-rule="evenodd" />
    <path
        d="M136.365 126.244L136.403 128.822L138.207 128.796M149.108 126.987C149.055 126.678 148.77 126.122 147.869 126.135C146.788 126.151 146.547 126.799 146.572 127.444C146.581 128.103 146.99 128.757 147.907 128.729C148.823 128.7 149.171 128.215 149.161 127.541L147.889 127.559M152.273 125.981L152.313 128.709M155.389 127.674L155.391 127.809C155.405 128.094 155.646 128.6 156.511 128.587C157.369 128.575 157.541 128.213 157.537 127.928C157.533 127.643 157.32 127.292 156.492 127.268C156.142 127.258 155.446 127.11 155.462 126.594C155.478 126.078 156.143 125.969 156.473 125.979C156.769 125.975 157.403 126.079 157.461 126.774M160.318 125.968L161.449 125.951M162.58 125.934L161.449 125.951M161.449 125.951L161.487 128.589M165.472 128.531L165.432 125.788M170.999 126.276C170.622 125.787 170.199 125.781 169.868 125.798C169.41 125.814 168.512 126.105 168.587 127.136C168.68 128.424 169.715 128.38 169.906 128.391C170.321 128.415 170.938 128.121 170.978 127.88M176.09 126.501C176.11 126.216 175.94 125.709 175.088 125.721C174.2 125.734 174.069 126.156 174.091 126.335C174.095 126.59 174.312 126.884 175.106 126.98C175.451 126.99 176.146 127.139 176.166 127.654C176.19 128.299 175.288 128.312 175.126 128.314C174.963 128.317 174.09 128.285 174.052 127.685L174.048 127.416M140.923 127.512C140.917 127.077 141.1 126.264 142.295 126.247C143.567 126.228 143.583 127.323 143.585 127.473C143.598 128.357 142.983 128.789 142.333 128.81C141.179 128.827 140.931 128.023 140.923 127.512Z"
        stroke="black" stroke-linejoin="round" stroke-width="0.3" />
    <path
        d="M36.1017 188.022C32.2977 188.022 24.5538 191.474 21.1574 193.043C15.3834 195.24 18.7799 197.856 21.497 199.321C23.3991 199.572 37.9132 202.773 44.9325 204.342L76.859 208.109L119.994 210.619C146.826 211.247 201.508 212.377 205.584 211.875C209.66 211.373 254.606 209.992 276.569 209.364C281.732 208.862 310.194 206.225 323.78 204.97C328.671 204.468 341.215 200.785 346.876 199.007C353.125 195.24 348.574 192.834 345.517 192.102C344.159 190.595 330.46 187.708 323.78 186.452L297.967 183C212.377 184.779 39.9057 188.022 36.1017 188.022Z"
        fill="#63C88E" />
    <path
        d="M28.1212 179.208C28.1212 187.846 36.0073 189.388 39.9504 189.08L39.9504 149.283C37.9581 150.023 37.045 141.159 36.8375 136.634C34.0981 133.426 29.6777 132.418 27.8099 132.315C25.0705 132.809 21.6878 129.024 20.3388 127.07V121.209C20.5879 118.988 15.2544 117.815 12.5565 117.507V116.273L11 116.89V133.549C13.9884 136.511 13.2828 140.336 12.5565 141.879C10.3151 147.061 13.4903 150.003 15.3581 150.825C20.0898 151.319 18.9899 158.641 17.8485 162.24C13.8639 168.163 19.5087 172.112 22.8292 173.346C26.5647 173.346 27.9137 177.254 28.1212 179.208Z"
        fill="#5DD2BD" />
    <path
        d="M49.9975 147.888C53.2007 156.73 56.1512 158.819 57.226 158.759L47.2623 114.005C50.002 113.999 53.8747 113.912 47.4478 113.609C41.0209 113.305 35.9636 110.97 34.2383 109.84L33.1846 106.932C33.5691 103.634 31.0238 101.574 29.7032 100.955L22.7275 99.8636L23.5324 112.074C23.0873 113.025 24.4007 115.379 25.113 116.437C27.6689 118.406 28.0044 122.298 27.8526 123.998C24.801 130.105 29.4106 132.536 32.0969 132.989C34.6765 132.844 36.198 136.438 36.6363 138.253C36.5925 139.585 35.8537 144.568 35.4898 146.894C36.525 147.571 40.2203 146.934 41.9386 146.531C43.483 145.708 47.9547 147.093 49.9975 147.888Z"
        fill="#42AA99" />
    <path
        d="M19.7162 135.884L29.3664 151.668M29.3664 151.668L17.5372 147.249M29.3664 151.668L32.7906 141.251M29.3664 151.668L37.7713 170.609M37.7713 170.609L39.9504 158.613M37.7713 170.609L25.0083 166.189M37.7713 170.609L39.9504 180.711"
        stroke="#43AA95" />
    <path
        d="M31.8568 109.736L39.0165 127.179M39.0165 127.179L28.7438 120.562M39.0165 127.179L43.686 117.254M39.0165 127.179L43.686 142.516V145.223L31.8568 139.81"
        stroke="#5DD2BD" />
    <path
        d="M207.366 124.881C205.819 123.747 206.232 120.447 205.819 119.622L208.294 119.932V118.694L206.129 116.529C205.386 114.797 206.644 115.189 207.366 115.601L207.675 116.22L209.222 116.529V115.601L207.985 113.436L212.934 110.961L214.325 113.744C214.426 113.945 214.456 114.174 214.41 114.395L212.934 121.478L213.862 124.262C212.625 126.984 208.913 126.015 207.366 124.881Z"
        fill="#F4B386" />
    <path
        d="M202.213 115.324C203.897 118.613 206.074 120.762 207.59 120.566C207.655 120.558 207.72 120.55 207.786 120.55H207.913C208.465 120.55 208.913 120.103 208.913 119.55V119.499C208.913 119.376 208.89 119.254 208.846 119.139L208.725 118.827C208.653 118.641 208.528 118.481 208.364 118.367L207.292 117.621C207.138 117.514 207.016 117.365 206.948 117.191C206.44 115.883 206.85 115.782 207.361 115.984C207.485 116.033 207.589 116.119 207.676 116.22L208.192 116.821C208.37 117.028 208.63 117.148 208.903 117.148H209.023C209.475 117.148 209.841 116.782 209.841 116.33C209.841 116.257 209.831 116.184 209.811 116.113L209.572 115.244C209.553 115.174 209.524 115.108 209.487 115.046C209.262 114.671 209.384 114.183 209.759 113.958L213.069 111.972C213.454 111.741 213.637 111.283 213.52 110.851L213.308 110.074C213.273 109.946 213.214 109.826 213.128 109.726C211.364 107.698 207.494 107.721 205.634 108.007C205.558 108.018 205.485 108.039 205.415 108.071C202.643 109.312 202.058 113.025 202.111 114.933C202.114 115.07 202.151 115.203 202.213 115.324Z"
        fill="black" />
    <path
        d="M213.862 123.953C215.099 123.705 218.502 126.324 219.739 127.355L214.158 141.915H222.51L223.128 145.936C219.911 146.431 210.24 145.73 205.806 145.318C203.579 143.09 201.372 139.44 200.547 137.894C198.32 135.666 199.001 130.779 199.619 128.614C199.867 128.119 204.582 125.293 206.747 123.953C210.954 127.17 213.037 125.293 213.862 123.953Z"
        fill="#F57069" />
    <path d="M226.235 125.246L210.15 130.583L214.171 142.513L231.803 141.571L226.235 125.246Z"
        fill="#FEDA89" />
    <path
        d="M226.235 125.154L237.485 121.478L242.939 139.859L231.803 141.571L229.019 133.363L226.235 125.154Z"
        fill="#FBE2AA" />
    <path
        d="M205.201 152.721V145.088L225.616 141.894L232.112 140.966L237.912 140.347L238.763 141.53L236.443 142.513L227.163 146.944H225.307V151.893C224.07 153.648 208.294 154.267 205.201 152.721Z"
        fill="#F67065" />
    <path
        d="M197.777 200.357L199.942 195.717L204.582 197.264C203.84 197.759 204.273 198.501 204.582 198.811L210.459 202.213L211.078 204.997C210.583 205.492 208.191 205.203 207.057 204.997L197.777 200.357Z"
        fill="#C4C4C4" />
    <path
        d="M232.422 202.522V197.882L237.062 196.336C237.557 198.563 238.505 199.12 238.918 199.12L244.485 199.738C246.96 200.728 245.517 202.007 244.485 202.522H232.422Z"
        fill="#C4C4C4" />
    <path
        d="M208.294 174.374L199.014 196.336L205.201 197.883L216.646 174.374L217.883 165.094L232.112 199.12L237.68 196.336L224.998 151.793C223.265 153.772 212.109 153.649 206.747 153.339L208.294 174.374Z"
        fill="black" />
    <path
        d="M225.926 140.347L221.905 142.203L222.523 144.987C224.998 144.74 228.71 141.791 230.256 140.347V138.947C230.256 138.524 229.914 138.182 229.492 138.182C229.202 138.182 228.937 138.346 228.808 138.605L228.4 139.419C228.111 139.997 227.552 139.765 226.975 138.723C226.898 138.583 226.753 138.491 226.593 138.491C226.386 138.491 226.21 138.641 226.176 138.844L225.926 140.347Z"
        fill="#F4B386" />
    <path
        d="M239.149 141.683L237.99 141.894V138.383C237.99 136.898 239.639 137.765 240.464 138.383L240.696 139.104C241.065 140.255 240.338 141.467 239.149 141.683Z"
        fill="#F4B386" />
    <path d="M39.3777 192.055V147.512H62.5774V192.055H39.3777Z" fill="#F9918E" />
    <path d="M108.049 192.055H62.2681V147.512H108.049V192.055Z" fill="#F47169" />
    <path d="M41.2336 114.104V147.512H75.8784V114.104H41.2336Z" fill="#FBE3AD" />
    <path d="M75.8783 147.203V114.104H92.5821V147.203H75.8783Z" fill="#FFDA89" />
    <path d="M45.5643 97.4008V113.795H54.5349V97.4008H45.5643Z" fill="#F9918E" />
    <path d="M54.2257 113.795V97.4008H71.5481V113.795H54.2257Z" fill="#F47169" />
    <path
        d="M142.075 187.106L139.909 140.088C134.465 144.542 127.743 145.244 125.062 145.037L118.566 164.216C118.318 165.948 117.638 168.856 117.328 170.093L115.472 187.106C117.7 188.343 120.112 187.622 121.04 187.106L127.846 163.288L131.867 157.41L134.032 165.762L137.125 187.106C138.363 187.601 140.941 187.312 142.075 187.106Z"
        fill="black" />
    <path
        d="M141.83 187.106H137.809C137.809 188.591 136.777 188.756 136.262 188.653C135.025 188.653 133.066 189.478 132.241 189.89C131.003 190.385 131.725 191.746 132.241 192.365C132.983 192.612 134.406 192.262 135.025 192.055C137.004 191.808 140.386 190.096 141.83 189.271V187.106Z"
        fill="#C4C4C4" />
    <path
        d="M119.926 190.509V187.106H115.905V188.034C113.678 188.034 110.234 189.684 108.79 190.509C108.296 191.499 109.409 191.952 110.028 192.055L119.308 191.437L119.926 190.509Z"
        fill="#C4C4C4" />
    <path
        d="M139.909 140.397C135.703 144.604 127.846 145.656 124.443 145.656L121.35 133.902C121.102 131.922 119.803 132.664 119.184 133.283L115.472 137.923L102.171 149.987C102.419 148.997 101.243 147.306 100.625 146.584L100.006 144.109L115.163 126.787C117.39 125.055 118.153 121.735 118.256 120.291C120.979 119.549 122.896 117.92 123.515 117.198C125.495 117.198 129.083 119.879 130.63 121.219C133.847 123.941 138.157 135.139 139.909 140.397Z"
        fill="#F47169" />
    <path
        d="M123.515 117.198C121.968 119.054 119.494 120.291 118.256 120.291C118.256 118.806 116.916 117.404 116.4 116.888C112.193 117.878 111.142 112.97 111.142 110.392C113.369 110.392 114.544 108.743 114.854 107.918H115.782L116.091 110.702L116.4 111.32L117.947 111.011V109.155C119.679 107.175 119.287 109.155 118.875 110.392L118.566 112.558L120.422 113.486C119.927 115.96 122.278 116.888 123.515 117.198Z"
        fill="#F6B07C" />
    <path
        d="M123.092 110.005C122.64 111.109 121.644 112.565 120.845 113.44C120.437 113.887 119.788 113.894 119.279 113.566C118.834 113.278 118.566 112.785 118.566 112.255V111.185C118.566 111.022 118.586 110.858 118.624 110.699C119.067 108.853 118.856 108.698 118.314 109.272C118.063 109.538 117.947 109.901 117.947 110.266V110.794C117.947 111.276 117.598 111.688 117.122 111.767C116.563 111.861 116.04 111.464 115.979 110.9L115.808 109.322C115.79 109.163 115.76 109.004 115.688 108.862C115.544 108.576 115.386 108.49 115.24 108.54C114.821 108.687 114.643 109.207 114.321 109.514C114.008 109.811 113.727 110.142 113.191 110.568C112.872 110.821 112.471 110.939 112.064 110.939H110.848C110.633 110.939 110.419 110.904 110.215 110.836L109.616 110.637C109.019 110.438 108.55 109.969 108.351 109.372L108.151 108.772C108.083 108.568 108.049 108.355 108.049 108.14V105.491C108.049 104.835 108.371 104.22 108.91 103.847L111.884 101.788C112.008 101.702 112.14 101.63 112.281 101.579C114.581 100.748 117.178 101.204 118.381 101.596C118.505 101.636 118.632 101.669 118.761 101.691C121.611 102.196 122.825 103.884 123.147 104.851C123.193 104.99 123.206 105.135 123.206 105.281V109.377C123.206 109.592 123.174 109.807 123.092 110.005Z"
        fill="black" />
    <path
        d="M103.1 149.368L101.553 147.512L97.5316 149.987L98.1565 150.403C98.3523 150.534 98.5878 150.591 98.8216 150.565L101.066 150.316C101.184 150.303 101.298 150.269 101.403 150.216L103.1 149.368Z"
        fill="#F9C18A" />
    <path
        d="M100.625 146.275L101.553 147.512L95.985 147.512C97.1266 146.413 99.421 146.696 100.625 146.275Z"
        fill="#F9C18A" />
    <g clip-path="url(#clip0)">
        <path
            d="M263.217 39.1667C258.904 39.1667 255.417 42.6544 255.417 46.9667C255.417 52.8167 263.217 61.4524 263.217 61.4524C263.217 61.4524 271.017 52.8167 271.017 46.9667C271.017 42.6544 267.529 39.1667 263.217 39.1667ZM263.217 49.7524C261.679 49.7524 260.431 48.5044 260.431 46.9667C260.431 45.429 261.679 44.181 263.217 44.181C264.754 44.181 266.002 45.429 266.002 46.9667C266.002 48.5044 264.754 49.7524 263.217 49.7524Z"
            fill="#FFB17C" />
    </g>
</svg>
