<svg fill="none" height="26" viewBox="0 0 26 26" width="26" xmlns="http://www.w3.org/2000/svg">
    <path
        d="M13 23.8334C14.1916 23.8334 15.1666 22.8584 15.1666 21.6667H10.8333C10.8333 22.8584 11.8083 23.8334 13 23.8334ZM19.5 17.3334V11.9167C19.5 8.59087 17.7341 5.80671 14.625 5.07004V4.33337C14.625 3.43421 13.8991 2.70837 13 2.70837C12.1008 2.70837 11.375 3.43421 11.375 4.33337V5.07004C8.27665 5.80671 6.49998 8.58004 6.49998 11.9167V17.3334L4.33331 19.5V20.5834H21.6666V19.5L19.5 17.3334ZM17.3333 18.4167H8.66665V11.9167C8.66665 9.23004 10.3025 7.04171 13 7.04171C15.6975 7.04171 17.3333 9.23004 17.3333 11.9167V18.4167Z"
        fill="black" />
    <circle cx="18" cy="9" fill="#FF0000" r="2" />
</svg>
