<svg fill="none" height="16" viewBox="0 0 16 16" width="16" xmlns="http://www.w3.org/2000/svg">
    <path
        d="M8 0.5C3.86 0.5 0.5 3.86 0.5 8C0.5 12.14 3.86 15.5 8 15.5C12.14 15.5 15.5 12.14 15.5 8C15.5 3.86 12.14 0.5 8 0.5ZM9.0575 12.5675V14H7.055V12.5525C5.7725 12.2825 4.685 11.4575 4.6025 10.0025H6.0725C6.1475 10.79 6.6875 11.405 8.06 11.405C9.53 11.405 9.86 10.67 9.86 10.2125C9.86 9.59 9.53 9.005 7.8575 8.6075C5.9975 8.1575 4.7225 7.3925 4.7225 5.855C4.7225 4.565 5.765 3.725 7.055 3.4475V2H9.0575V3.4625C10.4525 3.8 11.15 4.8575 11.195 6.005H9.725C9.6875 5.1725 9.245 4.6025 8.06 4.6025C6.935 4.6025 6.26 5.1125 6.26 5.8325C6.26 6.4625 6.7475 6.875 8.2625 7.265C9.7775 7.655 11.3975 8.3075 11.3975 10.1975C11.39 11.57 10.3625 12.32 9.0575 12.5675Z"
        fill="#27A85D" />
</svg>
