<svg fill="none" height="18" viewBox="0 0 19 18" width="19" xmlns="http://www.w3.org/2000/svg">
    <path
        d="M3.39699 7.2215C4.3776 7.19696 6.90737 6.72084 9.18151 5.01268V12.3386C8.2615 11.6023 5.81657 10.1298 3.39699 10.1298M11.4883 13.0933C12.1108 12.4122 13.336 10.5679 13.2567 8.63882C13.1774 6.70979 12.1879 5.41763 11.7031 5.01268M13.2567 2.87749C14.0665 3.78556 15.6796 6.20913 15.6531 8.63882C15.6129 12.3386 14.0445 13.8234 13.2567 14.8971M14.8929 1C15.9616 2.11054 18 5.19194 18 8.63882C18 13.0933 15.8955 15.5598 14.8929 16.8667M2.40535 7.2215V10.1298C1.92606 10.1052 0.974096 9.77268 1.00054 8.63882C1.02698 7.50497 1.9481 7.2215 2.40535 7.2215ZM2.83506 16.3513H4.8018V12.3386L2.83506 11.6575V16.3513Z"
        stroke="black" stroke-linecap="round" stroke-linejoin="round" stroke-width="1.5" />
    <circle cx="17" cy="3" fill="#FF0000" r="2" />
</svg>
