<svg fill="none" height="186" viewBox="0 0 188 186" width="188" xmlns="http://www.w3.org/2000/svg">
    <path
        d="M29.9241 18.614L28.9907 21.524C33.5589 21.524 97.6787 20.6455 110.033 21.524C115.963 21.524 135.473 22.2378 144.734 23.0065L144.709 22.9691C142.133 19.0479 130.372 1.14998 103.718 0.000637527C78.4615 -0.109176 67.7547 14.0018 65.8879 15.649C64.3944 16.9668 61.2025 17.1864 59.7932 17.1315H32.6694C30.7806 17.1315 30.0522 18.1198 29.9241 18.614Z"
        fill="#FF6600" />
    <path
        d="M153.464 48.8675C155.748 43.7282 155.331 34.482 154.782 30.3091C158.076 33.4717 159.998 40.1923 158.68 46.6712C158.076 50.7892 155.935 54.9072 153.683 59.4095C152.146 63.231 153.482 64.2596 154.342 64.2962H154.782L155.221 64.6806C150.993 66.9317 151.048 66.6572 150.773 68.1397C150.51 70.5995 147.955 75.607 146.71 77.8032C138.848 91.7275 123.704 99.1619 117.116 101.139C115.359 102.105 108.148 102.749 104.762 102.95H91.9136C91.2107 101.457 96.9283 77.547 99.875 65.7787H108.495C130.458 65.7787 146.46 64.6257 153.464 48.8675Z"
        fill="#FF6600" stroke="#FF6600" stroke-linecap="round" stroke-linejoin="round"
        stroke-width="0.5" />
    <path
        d="M111.845 32.5054L53.9731 32.9996C53.2264 35.679 50.0748 47.9341 50.7337 55.8956C50.7337 68.1397 61.8797 89.0042 73.6297 93.5615C73.7175 94.1325 73.4467 96.2153 73.3002 97.1853C72.8171 100.655 70.9942 107.288 70.9942 111.9H75.2769C74.8376 110.67 80.7309 84.4836 83.7325 71.5439C83.996 70.358 86.6425 58.3115 88.4544 54.1935H111.845C126.735 54.1935 142.043 56.1152 142.043 43.7612C141.78 29.4416 123.21 32.5054 111.845 32.5054Z"
        fill="black" />
    <path clip-rule="evenodd"
        d="M0.0473232 164.283H4.71438V151.325H8.55784C17.5076 151.325 17.5076 144.297 17.5076 143.748C17.6906 140.874 16.1569 135.16 8.55784 135.292C2.30911 135.4 0.359661 135.368 0.0473232 135.322V135.292C-0.0112175 135.302 -0.0201726 135.312 0.0473232 135.322V164.283ZM4.8791 139.465V147.426C9.32653 147.426 12.5221 147.273 12.566 143.802C12.6099 140.332 10.0952 139.135 4.8791 139.465Z"
        fill="#FF6600" fill-rule="evenodd" />
    <path clip-rule="evenodd"
        d="M69.4019 165.488C78.0139 165.488 84.9953 158.507 84.9953 149.895C84.9953 141.283 78.0139 134.301 69.4019 134.301C60.7898 134.301 53.8084 141.283 53.8084 149.895C53.8084 158.507 60.7898 165.488 69.4019 165.488ZM69.4019 160.547C75.2848 160.547 80.0538 155.778 80.0538 149.895C80.0538 144.012 75.2848 139.243 69.4019 139.243C63.519 139.243 58.75 144.012 58.75 149.895C58.75 155.778 63.519 160.547 69.4019 160.547Z"
        fill="#FF6600" fill-rule="evenodd" />
    <path clip-rule="evenodd"
        d="M172.407 165.488C181.019 165.488 188 158.507 188 149.895C188 141.283 181.019 134.301 172.407 134.301C163.794 134.301 156.813 141.283 156.813 149.895C156.813 158.507 163.794 165.488 172.407 165.488ZM172.407 160.547C178.289 160.547 183.058 155.778 183.058 149.895C183.058 144.012 178.289 139.243 172.407 139.243C166.524 139.243 161.755 144.012 161.755 149.895C161.755 155.778 166.524 160.547 172.407 160.547Z"
        fill="#FF6600" fill-rule="evenodd" />
    <path d="M130.623 139.957V134.85H150.718V139.957H143.086V164.445H138.145V139.957H130.623Z"
        fill="#FF6600" />
    <path
        d="M95.4825 164.39H100.204V145.118L122.002 166.257V135.29H117.171V155.001L95.4825 133.697V164.39Z"
        fill="#FF6600" />
    <path d="M47.1097 164.39H41.674L31.7359 150.993L36.5128 150.444L47.1097 164.39Z"
        fill="#FF6600" />
    <path clip-rule="evenodd"
        d="M26.9515 164.392H31.6186V151.434H35.4621C44.4118 151.434 44.4118 144.406 44.4118 143.857C44.5948 140.984 43.0611 135.27 35.4621 135.402C29.2133 135.51 27.2639 135.477 26.9515 135.432V135.402C26.893 135.412 26.884 135.422 26.9515 135.432V164.392ZM31.7833 139.575V147.536C36.2307 147.536 39.4262 147.382 39.4702 143.912C39.5141 140.442 36.9994 139.245 31.7833 139.575Z"
        fill="#FF6600" fill-rule="evenodd" />
    <path
        d="M20.2056 175.481V184.925H26.9042M67.4801 178.885C67.2971 177.751 66.2722 175.701 62.9229 175.701C58.9087 175.701 57.9813 178.062 58.0362 180.423C58.0362 182.839 59.5187 185.255 62.9229 185.2C66.3271 185.145 67.6449 183.388 67.6449 180.917H62.9229M79.285 175.371V185.364M90.7605 181.741V182.235C90.7971 183.278 91.6672 185.145 94.8785 185.145C98.0631 185.145 98.722 183.827 98.722 182.784C98.722 181.741 97.9533 180.445 94.8785 180.313C93.5791 180.258 91.0021 179.676 91.09 177.787C91.1778 175.899 93.6523 175.536 94.8785 175.591C95.9766 175.591 98.3266 176.008 98.5023 178.556M109.154 175.756H113.355M117.555 175.756H113.355M113.355 175.756V185.419M128.152 185.419V175.371M148.797 177.458C147.424 175.646 145.854 175.602 144.624 175.646C142.922 175.683 139.572 176.7 139.792 180.478C140.067 185.2 143.912 185.094 144.624 185.145C146.161 185.255 148.467 184.211 148.632 183.333M167.685 178.556C167.776 177.513 167.173 175.646 164.006 175.646C160.711 175.646 160.199 177.183 160.272 177.842C160.272 178.776 161.063 179.863 164.006 180.258C165.287 180.313 167.86 180.895 167.904 182.784C167.959 185.145 164.61 185.145 164.006 185.145C163.402 185.145 160.162 184.98 160.053 182.784V181.796M37.0619 180.368C37.0619 178.776 37.7867 175.811 42.2231 175.811C46.9451 175.811 46.9451 179.819 46.9451 180.368C46.9451 183.607 44.639 185.156 42.2231 185.2C37.9404 185.2 37.0619 182.241 37.0619 180.368Z"
        stroke="black" stroke-linejoin="round" />
</svg>
