<svg fill="none" height="9" viewBox="0 0 15 9" width="15" xmlns="http://www.w3.org/2000/svg">
    <path d="M10 2.5L15 3.125V7.5H10V2.5Z" fill="white" />
    <path
        d="M12.5 8.75C13.1904 8.75 13.75 8.19036 13.75 7.5C13.75 6.80964 13.1904 6.25 12.5 6.25C11.8096 6.25 11.25 6.80964 11.25 7.5C11.25 8.19036 11.8096 8.75 12.5 8.75Z"
        fill="white" />
    <path d="M8.75 0H0V7.5H8.75V0Z" fill="white" />
    <path
        d="M2.5 8.75C3.19036 8.75 3.75 8.19036 3.75 7.5C3.75 6.80964 3.19036 6.25 2.5 6.25C1.80964 6.25 1.25 6.80964 1.25 7.5C1.25 8.19036 1.80964 8.75 2.5 8.75Z"
        fill="white" />
</svg>
